<svg xmlns="http://www.w3.org/2000/svg" viewBox="0 0 128 128"><defs><linearGradient id="bg" x1="0" y1="0" x2="1" y2="1"><stop stop-color="#fff0f6"/><stop offset="1" stop-color="#e8e1ff"/></linearGradient><linearGradient id="bow" x1="0" y1="0" x2="1" y2="1"><stop stop-color="#ff8db2"/><stop offset="1" stop-color="#d94f89"/></linearGradient></defs><rect width="128" height="128" rx="28" fill="url(#bg)"/><path d="M38 58c-5-22 4-39 20-45l11-13 8 16c15 5 23 18 22 34-1 9-4 17-9 22 14 12 19 29 12 41-8 13-27 17-45 12-22-6-34-21-31-41 2-12 7-22 16-29z" fill="#252238"/><path d="M45 65c-13-9-22-6-22 3 0 8 10 14 24 10l5-6zm40 0c13-9 22-6 22 3 0 8-10 14-24 10l-5-6z" fill="url(#bow)"/><ellipse cx="65" cy="72" rx="10" ry="8" fill="#ef729e"/><path d="M65 82l4 8 9 1-7 6 2 9-8-5-8 5 2-9-7-6 9-1z" fill="#ffd978"/><path d="M101 18l4 9 10 1-8 6 3 10-9-6-9 6 3-10-8-6 10-1z" fill="#ffd978"/></svg>